<svg xmlns="http://www.w3.org/2000/svg" viewBox="0 0 32 32" width="32" height="32">
  <!-- Background circle -->
  <circle cx="16" cy="16" r="15" fill="#1a1a2e" stroke="#16213e" stroke-width="2"/>

  <!-- Central AI brain/chip design -->
  <g fill="#00d4ff">
    <!-- Central square representing processor -->
    <rect x="12" y="12" width="8" height="8" fill="#00d4ff" rx="1"/>

    <!-- Corner nodes -->
    <circle cx="8" cy="8" r="2" fill="#00d4ff"/>
    <circle cx="24" cy="8" r="2" fill="#00d4ff"/>
    <circle cx="8" cy="24" r="2" fill="#00d4ff"/>
    <circle cx="24" cy="24" r="2" fill="#00d4ff"/>

    <!-- Connecting lines (circuit traces) -->
    <path d="M10 8 L12 12" stroke="#00d4ff" stroke-width="1.5" fill="none"/>
    <path d="M22 8 L20 12" stroke="#00d4ff" stroke-width="1.5" fill="none"/>
    <path d="M8 10 L12 12" stroke="#00d4ff" stroke-width="1.5" fill="none"/>
    <path d="M24 10 L20 12" stroke="#00d4ff" stroke-width="1.5" fill="none"/>
    <path d="M8 22 L12 20" stroke="#00d4ff" stroke-width="1.5" fill="none"/>
    <path d="M24 22 L20 20" stroke="#00d4ff" stroke-width="1.5" fill="none"/>
    <path d="M10 24 L12 20" stroke="#00d4ff" stroke-width="1.5" fill="none"/>
    <path d="M22 24 L20 20" stroke="#00d4ff" stroke-width="1.5" fill="none"/>

    <!-- Small circuit details on central square -->
    <rect x="14" y="14" width="1" height="1" fill="#1a1a2e"/>
    <rect x="17" y="14" width="1" height="1" fill="#1a1a2e"/>
    <rect x="14" y="17" width="1" height="1" fill="#1a1a2e"/>
    <rect x="17" y="17" width="1" height="1" fill="#1a1a2e"/>

    <!-- Small data flow indicators -->
    <circle cx="16" cy="6" r="0.8" fill="#ff6b6b"/>
    <circle cx="26" cy="16" r="0.8" fill="#ff6b6b"/>
    <circle cx="16" cy="26" r="0.8" fill="#ff6b6b"/>
    <circle cx="6" cy="16" r="0.8" fill="#ff6b6b"/>
  </g>
</svg>